<?xml version="1.0" encoding="utf-8"?>
<!-- Generator: Adobe Illustrator 25.0.1, SVG Export Plug-In . SVG Version: 6.00 Build 0)  -->
<svg version="1.1" id="Capa_1" xmlns="http://www.w3.org/2000/svg" xmlns:xlink="http://www.w3.org/1999/xlink" x="0px" y="0px"
	 viewBox="0 0 557.72 180" style="enable-background:new 0 0 557.72 180;" xml:space="preserve">
<style type="text/css">
	.st0{fill:#4975F1;}
	.st1{fill:#1B1D34;}
</style>
<g>
	<path class="st0" d="M137.7,4c-2.65-2.65-5.95-4-9.79-4c-3.82,0-7.08,1.35-9.69,4c-2.7,2.7-4.07,5.98-4.07,9.75
		c0,3.75,1.37,7.02,4.07,9.72c2.7,2.7,5.96,4.07,9.69,4.07c3.8,0,7.09-1.37,9.79-4.07c2.65-2.65,4-5.92,4-9.72
		C141.7,9.99,140.32,6.62,137.7,4z M131.76,17.57c-1.09,1.09-2.31,1.6-3.85,1.6c-1.54,0-2.74-0.5-3.82-1.6
		c-1.05-1.05-1.56-2.3-1.56-3.82c0-1.52,0.51-2.76,1.59-3.84c1.05-1.07,2.26-1.58,3.79-1.58c1.47,0,2.74,0.54,3.85,1.6
		c1.05,1.05,1.56,2.3,1.56,3.81S132.81,16.52,131.76,17.57z"/>
	<path class="st0" d="M129.63,40.65c-1.16-2.41-2.85-4.01-5.05-4.74l-0.46-0.15h-0.49c-1.49,0-3.61,0.57-5.31,3.3
		c-0.93,1.52-1.71,3.22-2.3,5.01c-0.67,1.9-1.2,3.73-1.62,5.58l-0.38,1.65c-0.24,1.04-0.45,1.92-0.6,2.64
		c-1.41,6.23-3.31,13.61-5.66,21.93c-2.33,8.29-4.96,17.03-7.81,25.99c-2.85,8.95-5.91,17.82-9.11,26.39
		c-3.2,8.57-6.47,16.33-9.73,23.09c-1.08,1.98-2.12,3.71-3.2,5.27c-0.7,1.02-1.44,1.89-2.19,2.58c-0.74-2.15-1.22-5-1.44-8.47
		c-0.23-3.69-0.26-7.75-0.1-12.08c0.16-4.17,0.44-8.7,0.87-13.84c0.4-4.84,0.88-9.6,1.42-14.17c0.46-4.21,0.98-8.44,1.59-12.92
		l0.02-0.12c0.5-4,0.94-7.46,1.31-10.42l0.01-0.11c0.4-4.53-1.37-7.3-2.95-8.84c-1.77-1.7-3.59-3.09-5.41-4.14
		c-1.24-0.77-2.72-0.98-4.18-0.6c-1.13,0.3-2.17,0.89-3.01,1.72c-3.44,3.2-6.53,6.99-9.19,11.27c-2.55,4.09-4.95,8.64-7.14,13.5
		c-2.43,5.35-4.95,11.46-7.47,18.17c-2.54,6.78-5.02,13.36-7.46,19.78c-2.17,5.78-4.43,11.57-6.72,17.2
		c-2.4,5.94-4.01,8.77-4.89,10.03c0,0,0,0.01-0.01,0.01c-0.02-0.03-0.05-0.06-0.08-0.1c-0.51-0.7-0.96-1.52-1.33-2.46
		c-0.53-1.32-0.66-1.92-0.7-2.21c-0.43-2.7-0.39-6.45,0.12-11.14c0.54-5,1.4-10.42,2.54-16.12c1.22-6.11,2.59-12.26,4.08-18.29
		c1.54-6.28,3.05-12.38,4.54-18.04c1.12-4.29,2.15-8.3,3.1-11.99l0.91-3.53c1.19-4.66,2.08-8.2,2.7-10.77c0.67-2.97,0-5.9-1.95-8.5
		c-1.69-2.26-3.75-4.02-6.11-5.24c-2.48-1.28-5.04-1.77-7.61-1.47c-3.22,0.39-5.49,2.51-6.39,6.02c-0.86,3.65-2,8.24-3.71,14.89
		c-1.49,5.67-2.99,12.03-4.58,19.43c-1.48,6.9-2.83,13.98-4.13,21.67c-1.27,7.52-2.04,14.81-2.28,21.67
		c-0.25,7.1,0.14,13.45,1.2,19.42c1.1,6.23,3.26,11.38,6.41,15.33l0.07,0.08c0.82,0.95,1.79,1.82,2.93,2.61
		c1.04,0.75,2.23,1.45,3.71,2.17c1.45,0.66,2.88,1.09,4.28,1.29c0.62,0.09,1.24,0.13,1.85,0.13c0.9,0,1.79-0.1,2.67-0.29
		c3.21-0.78,6.21-3.02,8.92-6.65c2.41-3.22,4.76-7.16,6.98-11.72c2.2-4.54,4.27-9.27,6.34-14.46c2.09-5.35,3.93-10.21,5.63-14.87
		c0.88-2.47,1.75-4.83,2.6-7.05c-0.02,2.74,0.02,5.6,0.12,8.53c0.17,4.81,0.63,9.63,1.36,14.32c0.75,4.92,2.04,9.29,3.8,12.9
		c1.43,3.14,3.41,5.58,5.88,7.22c2.46,1.64,5.1,2.61,7.88,2.9c2.72,0.28,5.45,0.01,8.35-0.81c2.83-0.8,5.47-2.12,8.03-3.99
		c3.54-2.48,6.83-6.09,9.79-10.7c2.84-4.41,5.52-9.29,7.93-14.5c2.42-5.18,4.61-10.4,6.51-15.53c1.9-5.12,3.56-9.56,5-13.39
		c3.29-9.17,6.14-18.47,8.47-27.63c2.21-8.83,4.01-17.39,5.37-25.43l0.03-0.24c0.12-1.4,0.18-3.11,0.18-5.07
		c0-2.21-0.22-4.38-0.68-6.67C131.15,44.49,130.49,42.47,129.63,40.65z"/>
</g>
<g>
	<path class="st1" d="M191.6,116.71c-4.97-19.3-8.06-30.96-9.22-35.07l-9,35.07h-6.55l-14.62-54H161l8.86,35.57
		c0.07,0.43,0.14,0.65,0.22,0.65c0.43-1.51,1.94-7.42,4.46-17.71s4.1-16.49,4.68-18.58h6.77l8.86,35.57l0.22,0.65
		c0.07,0,0.14-0.07,0.22-0.22l8.93-36h8.78l-14.54,54L191.6,116.71z"/>
	<path class="st1" d="M250.5,80.78v36h-7.49v-3.1c-3.24,2.45-6.91,3.67-11.02,3.67c-5.11,0-9.5-1.8-13.11-5.47s-5.4-8.06-5.4-13.18
		c0-5.11,1.8-9.5,5.4-13.18c3.6-3.67,7.99-5.47,13.11-5.47c4.03,0,7.7,1.22,11.09,3.74v-3.17L250.5,80.78z M224.43,106.2
		c2.09,2.09,4.61,3.1,7.56,3.1s5.47-1.01,7.56-3.1c2.09-2.09,3.1-4.61,3.1-7.56c0-2.95-1.01-5.47-3.1-7.56
		c-2.09-2.09-4.61-3.1-7.56-3.1s-5.47,1.01-7.56,3.1c-2.09,2.09-3.1,4.61-3.1,7.56C221.33,101.59,222.34,104.11,224.43,106.2z"/>
	<path class="st1" d="M264.32,82.37c2.45-1.44,5.04-2.16,7.85-2.16c4.68,0,8.5,1.44,11.45,4.25c2.95,2.81,4.46,6.48,4.46,11.02
		v21.24h-7.99V95.97c0-2.09-0.79-3.96-2.38-5.54s-3.46-2.38-5.62-2.38c-2.23,0-4.1,0.65-5.62,1.94c-1.51,1.3-2.23,3.24-2.23,5.76
		v20.88h-7.92v-50.4h7.99V82.37z"/>
	<path class="st1" d="M294.05,66.31h7.99v50.33h-7.99V66.31z"/>
	<path class="st1" d="M326.38,109.3c4.1,0,7.2-1.8,9.22-5.4l7.2,3.17c-1.51,3.1-3.74,5.54-6.7,7.42c-2.95,1.87-6.19,2.81-9.79,2.81
		c-5.18,0-9.58-1.8-13.18-5.4c-3.6-3.6-5.4-7.99-5.4-13.18c0-5.11,1.8-9.5,5.4-13.11c3.6-3.6,7.99-5.4,13.18-5.4
		c2.95,0,5.76,0.72,8.42,2.16c2.66,1.44,4.9,3.31,6.62,5.62l-6.05,4.54c-2.38-2.95-5.4-4.39-9-4.39c-2.95,0-5.47,1.01-7.56,3.02
		c-2.09,2.02-3.1,4.46-3.1,7.42c0,2.95,1.01,5.47,3.02,7.56c2.02,2.09,4.54,3.1,7.49,3.1L326.38,109.3z"/>
	<path class="st1" d="M351.65,76.97c-1.08,0-2.02-0.36-2.81-1.15c-0.79-0.79-1.15-1.73-1.15-2.88c0-1.08,0.43-2.02,1.22-2.81
		s1.73-1.15,2.81-1.15s2.02,0.36,2.81,1.15s1.22,1.66,1.22,2.66c0,1.08-0.36,2.02-1.15,2.81c-0.79,0.79-1.73,1.15-2.81,1.15
		L351.65,76.97z M347.76,80.64h7.99v36h-7.99V80.64z"/>
	<path class="st1" d="M365.76,85.54c3.6-3.6,7.99-5.4,13.18-5.4c5.11,0,9.5,1.8,13.1,5.4c3.6,3.6,5.4,7.99,5.4,13.1
		c0,5.19-1.8,9.58-5.4,13.18c-3.6,3.6-7.99,5.4-13.1,5.4c-5.18,0-9.58-1.8-13.18-5.4c-3.6-3.6-5.4-7.99-5.4-13.18
		C360.36,93.53,362.16,89.13,365.76,85.54z M368.43,98.64c0,2.95,1.01,5.47,3.02,7.56c2.02,2.09,4.54,3.1,7.49,3.1
		s5.47-1.01,7.49-3.1c2.02-2.09,3.02-4.61,3.02-7.56c0-2.95-1.01-5.47-3.1-7.49c-2.09-2.02-4.61-3.02-7.56-3.02
		s-5.47,1.01-7.56,3.02c-2.09,2.02-3.1,4.46-3.1,7.42L368.43,98.64z"/>
	<path class="st1" d="M402.63,80.78h7.49v1.94c2.3-1.66,5.11-2.52,8.35-2.52c4.68,0,8.5,1.44,11.45,4.25
		c2.95,2.81,4.46,6.48,4.46,11.02v21.24h-7.99V95.97c0-2.09-0.79-3.96-2.38-5.54s-3.46-2.38-5.62-2.38c-2.23,0-4.1,0.65-5.62,1.87
		c-1.51,1.22-2.3,3.1-2.38,5.62v21.1h-7.92L402.63,80.78z"/>
	<path class="st1" d="M476.79,80.78v36h-7.49v-3.1c-3.24,2.45-6.91,3.67-11.02,3.67c-5.11,0-9.5-1.8-13.11-5.47s-5.4-8.06-5.4-13.18
		c0-5.11,1.8-9.5,5.4-13.18c3.6-3.67,7.99-5.47,13.11-5.47c4.03,0,7.7,1.22,11.09,3.74v-3.17L476.79,80.78z M450.72,106.2
		c2.09,2.09,4.61,3.1,7.56,3.1s5.47-1.01,7.56-3.1c2.09-2.09,3.1-4.61,3.1-7.56c0-2.95-1.01-5.47-3.1-7.56
		c-2.09-2.09-4.61-3.1-7.56-3.1s-5.47,1.01-7.56,3.1c-2.09,2.09-3.1,4.61-3.1,7.56C447.63,101.59,448.63,104.11,450.72,106.2z"/>
	<path class="st1" d="M482.62,80.64h7.63v2.09c2.09-1.66,5.04-2.52,8.86-2.66h3.6v8.06h-3.31c-2.66,0.07-4.82,0.72-6.41,1.94
		c-1.58,1.22-2.38,3.03-2.45,5.47v21.1h-7.92V80.64z"/>
	<path class="st1" d="M511.92,76.97c-1.08,0-2.02-0.36-2.81-1.15c-0.79-0.79-1.15-1.73-1.15-2.88c0-1.08,0.43-2.02,1.22-2.81
		s1.73-1.15,2.81-1.15s2.02,0.36,2.81,1.15s1.22,1.66,1.22,2.66c0,1.08-0.36,2.02-1.15,2.81c-0.79,0.79-1.73,1.15-2.81,1.15
		L511.92,76.97z M508.03,80.64h7.99v36h-7.99V80.64z"/>
	<path class="st1" d="M526.03,85.54c3.6-3.6,7.99-5.4,13.18-5.4c5.11,0,9.5,1.8,13.1,5.4c3.6,3.6,5.4,7.99,5.4,13.1
		c0,5.19-1.8,9.58-5.4,13.18c-3.6,3.6-7.99,5.4-13.1,5.4c-5.18,0-9.58-1.8-13.18-5.4c-3.6-3.6-5.4-7.99-5.4-13.18
		C520.63,93.53,522.43,89.13,526.03,85.54z M528.7,98.64c0,2.95,1.01,5.47,3.02,7.56c2.02,2.09,4.54,3.1,7.49,3.1
		s5.47-1.01,7.49-3.1c2.02-2.09,3.02-4.61,3.02-7.56c0-2.95-1.01-5.47-3.1-7.49c-2.09-2.02-4.61-3.02-7.56-3.02
		s-5.47,1.01-7.56,3.02c-2.09,2.02-3.1,4.46-3.1,7.42L528.7,98.64z"/>
</g>
</svg>
