<?xml version="1.0" encoding="utf-8"?>
<!-- Generator: Adobe Illustrator 25.0.1, SVG Export Plug-In . SVG Version: 6.00 Build 0)  -->
<svg version="1.1" id="Capa_1" xmlns="http://www.w3.org/2000/svg" xmlns:xlink="http://www.w3.org/1999/xlink" x="0px" y="0px"
	 viewBox="0 0 42 53.27" style="enable-background:new 0 0 42 53.27;" xml:space="preserve">
<style type="text/css">
	.st0{fill:#1B1E34;stroke:#1B1D34;stroke-width:2;stroke-miterlimit:10;}
</style>
<g>
	<g>
		<path class="st0" d="M40.08,1.92C40.7,2.54,41,3.3,41,4.17c0,0.88-0.3,1.62-0.92,2.24c-0.62,0.62-1.37,0.94-2.26,0.94
			c-0.87,0-1.61-0.32-2.23-0.94c-0.62-0.62-0.94-1.36-0.94-2.24c0-0.88,0.32-1.63,0.94-2.25C36.2,1.3,36.94,1,37.82,1
			C38.71,1,39.46,1.3,40.08,1.92z M37.82,6.65c0.68,0,1.27-0.24,1.76-0.73c0.48-0.48,0.72-1.07,0.72-1.75
			c0-0.68-0.24-1.27-0.72-1.75c-0.5-0.48-1.09-0.73-1.76-0.73c-0.68,0-1.27,0.24-1.75,0.73c-0.48,0.48-0.72,1.07-0.72,1.75
			c0,0.68,0.24,1.27,0.72,1.75C36.55,6.41,37.14,6.65,37.82,6.65z"/>
	</g>
</g>
<g>
	<path class="st0" d="M17.03,32.48c-0.39,0.53-0.81,1.35-1.26,2.47c-0.46,1.12-0.94,2.38-1.44,3.78c-0.51,1.4-1.06,2.85-1.65,4.36
		c-0.6,1.51-1.21,2.9-1.84,4.2c-0.63,1.29-1.29,2.4-1.97,3.31c-0.68,0.91-1.39,1.45-2.13,1.63c-0.32,0.07-0.65,0.08-1,0.03
		c-0.35-0.05-0.69-0.16-1.02-0.31c-0.33-0.16-0.65-0.34-0.94-0.55c-0.3-0.21-0.53-0.42-0.71-0.63c-0.84-1.05-1.41-2.42-1.71-4.12
		c-0.3-1.7-0.41-3.54-0.34-5.54c0.07-1.99,0.29-4.08,0.66-6.27c0.37-2.19,0.77-4.3,1.21-6.35c0.44-2.05,0.88-3.94,1.34-5.69
		c0.45-1.75,0.82-3.22,1.1-4.41c0.17-0.66,0.55-1.03,1.13-1.1c0.58-0.07,1.15,0.04,1.73,0.34c0.58,0.3,1.08,0.73,1.5,1.29
		c0.42,0.56,0.56,1.16,0.42,1.78c-0.18,0.74-0.44,1.78-0.79,3.15c-0.35,1.36-0.74,2.89-1.18,4.57c-0.44,1.68-0.88,3.46-1.34,5.33
		c-0.46,1.87-0.86,3.68-1.21,5.43c-0.35,1.75-0.6,3.36-0.76,4.83c-0.16,1.47-0.17,2.64-0.03,3.52c0.03,0.21,0.12,0.49,0.26,0.84
		c0.14,0.35,0.31,0.66,0.5,0.92c0.19,0.26,0.41,0.43,0.66,0.5c0.24,0.07,0.51-0.09,0.79-0.47c0.42-0.6,0.94-1.64,1.55-3.15
		c0.61-1.5,1.28-3.2,1.99-5.09c0.72-1.89,1.45-3.83,2.2-5.83c0.75-1.99,1.48-3.76,2.18-5.3c0.63-1.4,1.31-2.69,2.05-3.88
		c0.74-1.19,1.59-2.24,2.57-3.15c0.14-0.14,0.31-0.24,0.5-0.29c0.19-0.05,0.38-0.03,0.55,0.08c0.49,0.28,0.97,0.65,1.44,1.1
		c0.47,0.46,0.67,1.09,0.6,1.89c-0.11,0.88-0.24,1.91-0.39,3.1c-0.16,1.19-0.32,2.47-0.47,3.83c-0.16,1.36-0.3,2.76-0.42,4.2
		c-0.12,1.44-0.21,2.81-0.26,4.12c-0.05,1.31-0.04,2.53,0.03,3.65c0.07,1.12,0.23,2.03,0.47,2.73c0.11,0.42,0.25,0.67,0.45,0.74
		c0.19,0.07,0.41,0.03,0.66-0.11c0.38-0.28,0.75-0.67,1.1-1.18c0.35-0.51,0.68-1.06,1-1.65c0.98-2.03,1.95-4.33,2.91-6.9
		c0.96-2.57,1.86-5.18,2.7-7.82c0.84-2.64,1.61-5.2,2.31-7.69c0.7-2.48,1.26-4.65,1.68-6.51c0.07-0.32,0.17-0.74,0.29-1.26
		c0.12-0.53,0.27-1.04,0.45-1.55c0.17-0.51,0.38-0.95,0.6-1.31c0.23-0.37,0.5-0.55,0.81-0.55c0.42,0.14,0.74,0.46,0.97,0.94
		c0.23,0.49,0.4,1.03,0.53,1.63c0.12,0.6,0.18,1.19,0.18,1.78c0,0.6-0.02,1.07-0.05,1.42c-0.39,2.31-0.91,4.79-1.57,7.43
		c-0.67,2.64-1.49,5.33-2.47,8.06c-0.42,1.12-0.91,2.43-1.47,3.94c-0.56,1.51-1.19,3.01-1.89,4.51c-0.7,1.51-1.46,2.9-2.28,4.17
		c-0.82,1.28-1.71,2.25-2.65,2.91c-0.67,0.49-1.36,0.84-2.1,1.05s-1.44,0.28-2.13,0.21c-0.68-0.07-1.32-0.31-1.92-0.71
		c-0.6-0.4-1.07-0.99-1.42-1.76c-0.49-1.01-0.84-2.2-1.05-3.57c-0.21-1.36-0.34-2.74-0.39-4.12c-0.05-1.38-0.05-2.69,0-3.91
		C16.9,34.25,16.96,33.25,17.03,32.48z"/>
</g>
</svg>
