<?xml version="1.0" encoding="utf-8"?>
<!-- Generator: Adobe Illustrator 25.0.1, SVG Export Plug-In . SVG Version: 6.00 Build 0)  -->
<svg version="1.1" xmlns="http://www.w3.org/2000/svg" xmlns:xlink="http://www.w3.org/1999/xlink" x="0px" y="0px"
	 viewBox="0 0 93.64 119.19" style="enable-background:new 0 0 93.64 119.19;" xml:space="preserve">
<style type="text/css">
	.st0{display:none;}
	.st1{display:inline;}
	.st2{fill:#1B1E34;stroke:#1B1D34;stroke-width:2;stroke-miterlimit:10;}
	.st3{fill:#E63C3D;stroke:#E63C3D;stroke-width:3;stroke-miterlimit:10;}
</style>
<g id="Capa_1" class="st0">
	<g class="st1">
		<g>
			<path class="st2" d="M90.06,3.59c1.4,1.4,2.08,3.12,2.08,5.1c0,1.99-0.68,3.67-2.08,5.07c-1.4,1.4-3.11,2.12-5.13,2.12
				c-1.98,0-3.66-0.72-5.06-2.12c-1.4-1.4-2.12-3.08-2.12-5.07c0-1.99,0.72-3.7,2.12-5.1c1.4-1.4,3.08-2.09,5.06-2.09
				C86.95,1.5,88.66,2.19,90.06,3.59z M84.93,14.31c1.54,0,2.87-0.55,4-1.64c1.09-1.1,1.64-2.43,1.64-3.97
				c0-1.54-0.55-2.88-1.64-3.97c-1.13-1.1-2.46-1.64-4-1.64c-1.54,0-2.87,0.55-3.97,1.64c-1.09,1.1-1.64,2.43-1.64,3.97
				c0,1.54,0.55,2.88,1.64,3.97C82.06,13.77,83.39,14.31,84.93,14.31z"/>
		</g>
	</g>
	<g class="st1">
		<path class="st2" d="M37.82,72.83c-0.87,1.19-1.82,3.05-2.85,5.59c-1.03,2.54-2.12,5.39-3.27,8.56c-1.15,3.17-2.4,6.46-3.75,9.87
			c-1.35,3.41-2.74,6.58-4.16,9.51c-1.43,2.93-2.91,5.43-4.46,7.49c-1.55,2.06-3.15,3.29-4.82,3.69c-0.71,0.16-1.47,0.18-2.26,0.06
			c-0.79-0.12-1.57-0.36-2.32-0.71c-0.75-0.36-1.47-0.77-2.14-1.25c-0.67-0.48-1.21-0.95-1.61-1.43c-1.9-2.38-3.19-5.49-3.87-9.34
			c-0.67-3.85-0.93-8.03-0.77-12.55c0.16-4.52,0.65-9.25,1.49-14.21c0.83-4.95,1.74-9.75,2.74-14.39c0.99-4.64,2-8.94,3.03-12.9
			c1.03-3.96,1.86-7.29,2.5-9.99c0.4-1.51,1.25-2.34,2.56-2.5c1.31-0.16,2.62,0.1,3.92,0.77c1.31,0.67,2.44,1.65,3.39,2.91
			c0.95,1.27,1.27,2.62,0.95,4.04c-0.4,1.67-0.99,4.04-1.78,7.14c-0.79,3.09-1.69,6.54-2.68,10.35c-0.99,3.8-2,7.83-3.03,12.07
			c-1.03,4.24-1.94,8.35-2.74,12.31c-0.79,3.96-1.37,7.61-1.72,10.94c-0.36,3.33-0.38,5.99-0.06,7.97c0.08,0.48,0.28,1.11,0.59,1.9
			c0.32,0.79,0.69,1.49,1.13,2.08c0.43,0.59,0.93,0.97,1.49,1.13c0.55,0.16,1.15-0.2,1.78-1.07c0.95-1.35,2.12-3.73,3.51-7.14
			c1.39-3.41,2.89-7.25,4.52-11.54c1.62-4.28,3.29-8.68,5-13.2c1.7-4.52,3.35-8.52,4.94-12.01c1.43-3.17,2.97-6.1,4.64-8.8
			c1.67-2.69,3.61-5.07,5.83-7.14c0.32-0.32,0.69-0.54,1.13-0.65c0.43-0.12,0.85-0.06,1.25,0.18c1.11,0.64,2.2,1.47,3.27,2.5
			c1.07,1.03,1.53,2.46,1.37,4.28c-0.24,1.98-0.54,4.32-0.89,7.02c-0.36,2.7-0.71,5.59-1.07,8.68c-0.36,3.09-0.67,6.26-0.95,9.51
			c-0.28,3.25-0.48,6.36-0.59,9.34c-0.12,2.97-0.1,5.73,0.06,8.27c0.16,2.54,0.51,4.6,1.07,6.18c0.24,0.95,0.57,1.51,1.01,1.67
			c0.43,0.16,0.93,0.08,1.49-0.24c0.87-0.63,1.7-1.53,2.5-2.68c0.79-1.15,1.55-2.4,2.26-3.75c2.22-4.6,4.42-9.81,6.6-15.64
			c2.18-5.83,4.22-11.73,6.13-17.72c1.9-5.99,3.65-11.79,5.23-17.42c1.59-5.63,2.85-10.54,3.81-14.75c0.16-0.71,0.38-1.67,0.65-2.85
			c0.28-1.19,0.61-2.36,1.01-3.51c0.4-1.15,0.85-2.14,1.37-2.97c0.51-0.83,1.13-1.25,1.84-1.25c0.95,0.32,1.68,1.03,2.2,2.14
			c0.51,1.11,0.91,2.34,1.19,3.69c0.28,1.35,0.42,2.7,0.42,4.04c0,1.35-0.04,2.42-0.12,3.21c-0.87,5.23-2.06,10.84-3.57,16.83
			c-1.51,5.99-3.37,12.07-5.59,18.26c-0.95,2.54-2.06,5.51-3.33,8.92c-1.27,3.41-2.7,6.82-4.28,10.23
			c-1.59,3.41-3.31,6.56-5.17,9.46c-1.86,2.9-3.87,5.09-6.01,6.6c-1.51,1.11-3.09,1.9-4.76,2.38c-1.66,0.48-3.27,0.63-4.82,0.48
			c-1.55-0.16-2.99-0.7-4.34-1.6c-1.35-0.91-2.42-2.24-3.21-3.98c-1.11-2.3-1.9-5-2.38-8.09c-0.48-3.09-0.77-6.2-0.89-9.34
			c-0.12-3.13-0.12-6.08,0-8.86C37.52,76.84,37.66,74.58,37.82,72.83z"/>
	</g>
</g>
<g id="Capa_1_copia">
	<g>
		<g>
			<path class="st3" d="M90.06,3.59c1.4,1.4,2.08,3.12,2.08,5.1c0,1.99-0.68,3.67-2.08,5.07c-1.4,1.4-3.11,2.12-5.13,2.12
				c-1.98,0-3.66-0.72-5.06-2.12c-1.4-1.4-2.12-3.08-2.12-5.07c0-1.99,0.72-3.7,2.12-5.1c1.4-1.4,3.08-2.09,5.06-2.09
				C86.95,1.5,88.66,2.19,90.06,3.59z M84.93,14.31c1.54,0,2.87-0.55,4-1.64c1.09-1.1,1.64-2.43,1.64-3.97
				c0-1.54-0.55-2.88-1.64-3.97c-1.13-1.1-2.46-1.64-4-1.64c-1.54,0-2.87,0.55-3.97,1.64c-1.09,1.1-1.64,2.43-1.64,3.97
				c0,1.54,0.55,2.88,1.64,3.97C82.06,13.77,83.39,14.31,84.93,14.31z"/>
		</g>
	</g>
	<g>
		<path class="st3" d="M37.82,72.83c-0.87,1.19-1.82,3.05-2.85,5.59c-1.03,2.54-2.12,5.39-3.27,8.56c-1.15,3.17-2.4,6.46-3.75,9.87
			c-1.35,3.41-2.74,6.58-4.16,9.51c-1.43,2.93-2.91,5.43-4.46,7.49c-1.55,2.06-3.15,3.29-4.82,3.69c-0.71,0.16-1.47,0.18-2.26,0.06
			c-0.79-0.12-1.57-0.36-2.32-0.71c-0.75-0.36-1.47-0.77-2.14-1.25c-0.67-0.48-1.21-0.95-1.61-1.43c-1.9-2.38-3.19-5.49-3.87-9.34
			c-0.67-3.85-0.93-8.03-0.77-12.55c0.16-4.52,0.65-9.25,1.49-14.21c0.83-4.95,1.74-9.75,2.74-14.39c0.99-4.64,2-8.94,3.03-12.9
			c1.03-3.96,1.86-7.29,2.5-9.99c0.4-1.51,1.25-2.34,2.56-2.5c1.31-0.16,2.62,0.1,3.92,0.77c1.31,0.67,2.44,1.65,3.39,2.91
			c0.95,1.27,1.27,2.62,0.95,4.04c-0.4,1.67-0.99,4.04-1.78,7.14c-0.79,3.09-1.69,6.54-2.68,10.35c-0.99,3.8-2,7.83-3.03,12.07
			c-1.03,4.24-1.94,8.35-2.74,12.31c-0.79,3.96-1.37,7.61-1.72,10.94c-0.36,3.33-0.38,5.99-0.06,7.97c0.08,0.48,0.28,1.11,0.59,1.9
			c0.32,0.79,0.69,1.49,1.13,2.08c0.43,0.59,0.93,0.97,1.49,1.13c0.55,0.16,1.15-0.2,1.78-1.07c0.95-1.35,2.12-3.73,3.51-7.14
			c1.39-3.41,2.89-7.25,4.52-11.54c1.62-4.28,3.29-8.68,5-13.2c1.7-4.52,3.35-8.52,4.94-12.01c1.43-3.17,2.97-6.1,4.64-8.8
			c1.67-2.69,3.61-5.07,5.83-7.14c0.32-0.32,0.69-0.54,1.13-0.65c0.43-0.12,0.85-0.06,1.25,0.18c1.11,0.64,2.2,1.47,3.27,2.5
			c1.07,1.03,1.53,2.46,1.37,4.28c-0.24,1.98-0.54,4.32-0.89,7.02c-0.36,2.7-0.71,5.59-1.07,8.68c-0.36,3.09-0.67,6.26-0.95,9.51
			c-0.28,3.25-0.48,6.36-0.59,9.34c-0.12,2.97-0.1,5.73,0.06,8.27c0.16,2.54,0.51,4.6,1.07,6.18c0.24,0.95,0.57,1.51,1.01,1.67
			c0.43,0.16,0.93,0.08,1.49-0.24c0.87-0.63,1.7-1.53,2.5-2.68c0.79-1.15,1.55-2.4,2.26-3.75c2.22-4.6,4.42-9.81,6.6-15.64
			c2.18-5.83,4.22-11.73,6.13-17.72c1.9-5.99,3.65-11.79,5.23-17.42c1.59-5.63,2.85-10.54,3.81-14.75c0.16-0.71,0.38-1.67,0.65-2.85
			c0.28-1.19,0.61-2.36,1.01-3.51c0.4-1.15,0.85-2.14,1.37-2.97c0.51-0.83,1.13-1.25,1.84-1.25c0.95,0.32,1.68,1.03,2.2,2.14
			c0.51,1.11,0.91,2.34,1.19,3.69c0.28,1.35,0.42,2.7,0.42,4.04c0,1.35-0.04,2.42-0.12,3.21c-0.87,5.23-2.06,10.84-3.57,16.83
			c-1.51,5.99-3.37,12.07-5.59,18.26c-0.95,2.54-2.06,5.51-3.33,8.92c-1.27,3.41-2.7,6.82-4.28,10.23
			c-1.59,3.41-3.31,6.56-5.17,9.46c-1.86,2.9-3.87,5.09-6.01,6.6c-1.51,1.11-3.09,1.9-4.76,2.38c-1.66,0.48-3.27,0.63-4.82,0.48
			c-1.55-0.16-2.99-0.7-4.34-1.6c-1.35-0.91-2.42-2.24-3.21-3.98c-1.11-2.3-1.9-5-2.38-8.09c-0.48-3.09-0.77-6.2-0.89-9.34
			c-0.12-3.13-0.12-6.08,0-8.86C37.52,76.84,37.66,74.58,37.82,72.83z"/>
	</g>
</g>
</svg>
