<?xml version="1.0" encoding="utf-8"?>
<!-- Generator: Adobe Illustrator 25.0.1, SVG Export Plug-In . SVG Version: 6.00 Build 0)  -->
<svg version="1.1" id="Capa_1" xmlns="http://www.w3.org/2000/svg" xmlns:xlink="http://www.w3.org/1999/xlink" x="0px" y="0px"
	 viewBox="0 0 1366 768" style="enable-background:new 0 0 1366 768;" xml:space="preserve">
<style type="text/css">
	.st0{fill:#E7F3FE;}
	.st1{fill:#303C60;}
	.st2{fill:#F09959;}
	.st3{fill:#6791C9;}
	.st4{fill:#75A1DE;}
	.st5{opacity:0.5;fill:#6791C9;}
	.st6{fill:#E38540;}
	.st7{fill:#F5CE5C;}
	.st8{fill:#4381DB;}
	.st9{fill:#2E5B9A;}
	.st10{fill:#9CBEED;}
	.st11{fill:#FFFFFF;}
	.st12{fill:#DBE5EB;}
	.st13{fill:#F37168;}
	.st14{fill:#F2E5DE;}
	.st15{fill:#7BCEE8;}
	.st16{fill:#9EC8FF;}
	.st17{fill:#9CD499;}
	.st18{fill:#74B570;}
	.st19{fill:#A2DFF2;}
</style>
<g>
	<path class="st0" d="M230.23,731.31c0,0-288.19-181.03-91.24-375.08S599.52-36.24,776.2,40.52s160.79,173.78,354.85,314.26
		c194.06,140.48,149.16,251.99,114.41,308.47c-34.76,56.48-40.55,70.96-40.55,70.96L230.23,731.31z"/>
	<path class="st1" d="M450.35,217.47c42.67-38.01,74.01-15.34,97.35,10c18.6,20.2,21.2,24.67,36.57,45.6
		c2.28,3.11,4.04,6.56,4.11,10.41c0.43,23.13,12.27,120.95-0.89,154.7C572.15,477.53,383,495.53,383,495.53L450.35,217.47z"/>
	<g>
		<path class="st1" d="M571.48,460.58c-1.03,0-1.89-0.81-1.95-1.85c-0.05-1.07,0.77-1.99,1.85-2.04c5.61-0.28,10.18-2.81,13.97-7.71
			c21.21-27.48,9.28-119.21-1.11-169.09c-0.22-1.05,0.46-2.09,1.51-2.31c1.05-0.22,2.09,0.45,2.31,1.51
			c2.27,10.89,9.86,49.56,12.22,89.83c2.43,41.36-1.55,69.1-11.85,82.44c-4.46,5.78-10.13,8.89-16.86,9.23
			C571.55,460.58,571.52,460.58,571.48,460.58z"/>
	</g>
	<path class="st1" d="M466.35,206.14c-82.02,45.34-32.01,198.71-136.03,253.38c-28.82,15.15-117.36,92.02-59.34,193.37
		c37.95,66.3,151.36,52.01,188.7-6.67C497.03,587.55,466.35,206.14,466.35,206.14z"/>
	<g>
		<path class="st1" d="M248.09,554.82c-0.09,0-0.17-0.01-0.26-0.02c-1.07-0.14-1.82-1.12-1.67-2.19
			c0.07-0.54,1.86-13.45,10.04-30.56c7.54-15.77,22.17-38.16,49.08-55.29c48.13-30.63,80.08-59.49,117.85-201.79
			c0.28-1.04,1.35-1.66,2.38-1.38c1.04,0.28,1.66,1.34,1.38,2.38c-18.25,68.76-36.35,115.24-56.96,146.28
			c-19.13,28.83-38.82,42.68-62.57,57.79c-50,31.82-57.28,82.56-57.35,83.07C249.89,554.11,249.05,554.82,248.09,554.82z"/>
	</g>
	<g>
		<path class="st1" d="M249.88,515.11c-0.36,0-0.72-0.1-1.04-0.3c-0.91-0.57-1.18-1.78-0.61-2.69
			c11.89-18.83,27.04-34.27,45.02-45.9c67.59-43.71,78.78-68.84,134.6-212.78c0.39-1,1.52-1.5,2.52-1.11c1,0.39,1.5,1.52,1.11,2.52
			c-27.91,71.96-44.59,114.13-62.84,144.02c-19.6,32.1-41.71,50.2-73.28,70.62c-17.5,11.32-32.26,26.36-43.84,44.71
			C251.16,514.79,250.53,515.11,249.88,515.11z"/>
	</g>
	<path class="st2" d="M463.52,301.84c-28.24,58.65-23.89,111.87-23.89,111.87s3.26,20.64,16.29,24.98
		c13.03,4.34,31.5-8.69,30.41-26.07c-1.09-17.38,4.34-59.73,10.86-74.94C503.7,322.48,463.52,301.84,463.52,301.84z"/>
	<path class="st3" d="M314.32,709.35c1.78,16-2.22,14.67,12,17.34c14.22,2.67,39.56-7.11,39.56-7.11l-28.45-52.9L314.32,709.35z"/>
	<path class="st2" d="M443.03,382.21c-8,26-68.01,6-89.01,12c-21,6-39.01,94.01-42.01,173.03s1,142.02,9,152.02
		c8,10,140.02,14,152.02,10c12-4-100.01-54.01-100.01-54.01s-7-92.01,2-139.02c9-47.01,90.01-109.02,90.01-109.02L443.03,382.21z"/>
	<path class="st2" d="M471.04,390.22c21,32,76.01,28,95.01,54.01c19,26,59.01,169.03,59.01,169.03l42.01-145.02
		c0,0,34.07-5.72,23,18c-19.68,42.2-27.01,178.33-48.35,197.67c-23.73,21.5-47.34,4-60.67-33.65
		c-12.89-36.42-45.01-115.02-68.01-145.02c-23-30-48.01-78.01-48.01-78.01L471.04,390.22z"/>
	<path class="st4" d="M380.02,394.22c42.01,49.01,124.02,47.01,142.02,41.01c18-6,18-6,18-6s14-5,26,9
		c12,14,41.01,102.02,46.01,122.02c5,20,13,53.01,13,53.01S603.6,639,603.6,665.01c0,26,9.11,26.23,9.11,26.23
		s-26.66-5.98-32.66-21.98c-6-16-60.01-161.03-60.01-161.03l-149.02,3l2,164.03c0,0-13-12-31,0c-18,12-24,40.01-21,44.01
		c3,4-6,4-6,1c0-3-17-76.01-5-196.03c12-120.02,35-133.02,48.01-134.02C371.02,389.22,380.02,394.22,380.02,394.22z"/>
	<g>
		<path class="st3" d="M606.61,689.17c0.28,0.09,0.45,0.1,0.45,0.1S606.89,689.23,606.61,689.17z"/>
		<path class="st3" d="M612.38,616.89c-8.67,2.67-23.34,33.34-23.34,33.34s-33.34-72.68-43.34-173.37l-11.9,68.31
			c16.43,44.11,42.21,113.32,46.25,124.09c5.49,14.64,27.63,20.75,30.66,21.42c-0.83-0.28-2.66-1.39-4.18-5.78
			c-0.88-0.8-5.88-3.14-6.82-4c-8-7.33-4.67-24.67,0.67-44.01C605.71,617.55,621.05,614.22,612.38,616.89z"/>
	</g>
	<path class="st3" d="M378.19,511.09l-16.53-75.57c-18,25.34-20,112.02-12.67,171.37c6.02,48.67,15.01,61.3,21.2,66.37
		c1.83,1.08,2.83,2,2.83,2l-2-164.03L378.19,511.09z"/>
	<path class="st4" d="M330.32,434.85c30.67,82.68,15.34,99.35,55.7,196.4c22.54,54.2,66.01,95.02,66.01,95.02s35.01,9,79.01,6
		c44.01-3,76.22-6.02,76.22-6.02s-46.22-27.98-48.22-46.98c-2-19-10.68-94.38,0.65-147.72c8.85-41.66-27.66-83.31-27.66-83.31
		l-61.01-3L330.32,434.85z"/>
	<path class="st5" d="M384.34,561.54c-5.34-19.34,22.67,6,68.68,10.67c46.01,4.67,97.35-2.67,72.02,5.33
		c-25.34,8-94.69-4-82.02,21.34c14.91,29.82,32.52,58.68,58.01,76.02c16.67,11.34,56.68,22,18,16c-38.67-6-80.02-51.34-98.02-80.68
		C403.01,580.88,385.53,565.86,384.34,561.54z"/>
	<path class="st6" d="M486.22,405.01c0.41-19.96,5.27-54.03,10.97-67.33c4.67-10.89-14.63-24.57-25.96-31.46l-9.58-0.41
		c-1.46,3.18-2.83,6.34-4.1,9.48c-10.11,66.38,20.15,93.81,34.58,99.33c6.23,2.38,13.21,2.65,19.18,2.11
		C502.41,413.56,493.72,409.96,486.22,405.01z"/>
	<g>
		<path class="st7" d="M467.9,434.53c-3.47,0-7.07-0.42-10.65-1.29c-8.34-2.03-28.25-9.77-32.88-37.54c-0.1-0.6,0.31-1.17,0.91-1.27
			c0.6-0.1,1.17,0.31,1.27,0.91c4.41,26.48,23.31,33.83,31.23,35.76c12.3,3,25.36,0.22,30.37-6.46c4.02-5.36,1.61-16.77,1.58-16.88
			c-0.13-0.6,0.25-1.18,0.84-1.31c0.59-0.13,1.18,0.25,1.31,0.85c0.11,0.51,2.65,12.51-1.97,18.68
			C485.81,431.42,477.36,434.53,467.9,434.53z"/>
	</g>
	<path class="st2" d="M562.01,327.94c-6.78,35.83-22.45,64.73-48.97,59.28c-26.52-5.45-54.39-43.29-47.05-79
		c7.34-35.72,34.78-60.25,61.3-54.81C553.8,258.85,571.05,280.2,562.01,327.94z"/>
	<path class="st2" d="M656.39,504.87c0,0-49.01,131.69-51.34,145.36c-2.33,13.67,2.33,22.34,3.67,22.34
		c1.33,0,43.01-71.35,43.01-71.35L656.39,504.87z"/>
	<path class="st2" d="M658.39,499.09c4-13.34-2.22-30.23-2.22-30.23l17.78,2.22L658.39,499.09z"/>
	<g>
		<path class="st8" d="M677.93,476.34h-49.62c-3.01,0-5.17-2.9-4.31-5.79l31.32-105.02c0.57-1.91,2.32-3.21,4.31-3.21h49.62
			c3.01,0,5.17,2.9,4.31,5.79l-31.32,105.01C681.67,475.03,679.92,476.34,677.93,476.34z"/>
		<path class="st9" d="M684.15,476.34h-49.61c-3.01,0-5.17-2.9-4.31-5.79l31.32-105.02c0.57-1.91,2.32-3.21,4.31-3.21h49.61
			c3.01,0,5.17,2.9,4.31,5.79l-31.32,105.01C687.9,475.03,686.14,476.34,684.15,476.34z"/>
		<path class="st10" d="M648.23,400.22c-5.29,19.06-8.85,34.71-7.95,34.96c0.9,0.25,5.91-15,11.2-34.06
			c5.29-19.06,8.85-34.71,7.95-34.96C658.54,365.92,653.52,381.16,648.23,400.22z"/>
	</g>
	<path class="st2" d="M681.95,507.53c1.47-17.32,16.47-33.55,22.17-38.73c1.74-1.57,2.71-3.81,2.69-6.15
		c-0.08-8.63-0.47-29.01-2.25-31.39c-2.27-3.03-7.96-42.05-10.61-40.53c-2.65,1.51,0.76,35.61,0.76,35.61s-6.44-3.03-9.85-4.54
		c-3.41-1.52-17.43,14.02-17.43,14.02s-6.57,16.6,11.4,9.49c21.34-8.45,5.33,15.11-8.89,30.23c-11.72,12.45-1.75,15.21-1.75,15.21
		l9.47-0.38L681.95,507.53z"/>
	<g>
		<path class="st7" d="M676.58,521.16c-1.57,0-3.35-0.24-5.14-0.8c-4.61-1.44-12.67-6.08-14.8-21c-0.09-0.6,0.33-1.16,0.94-1.25
			c0.61-0.08,1.16,0.33,1.25,0.94c1.82,12.76,8.01,17.42,12.88,19.08c3.98,1.36,7.27,0.73,8.1,0.27c0.05-0.38,0.3-0.72,0.68-0.88
			c0.57-0.23,1.21,0.05,1.44,0.62c0.22,0.56,0.09,1.18-0.35,1.66C680.8,520.62,678.92,521.16,676.58,521.16z"/>
	</g>
	<g>
		<path class="st7" d="M674.72,516.87c-1.47,0-3.01-0.11-4.47-0.32c-8.57-1.25-14.32-5.6-15.76-11.94
			c-0.14-0.59,0.24-1.19,0.83-1.32c0.6-0.13,1.19,0.24,1.32,0.83c1.38,6.05,6.88,8.62,11.25,9.71c6.13,1.53,11.88,0.59,12.57-0.21
			c0.3-0.53,0.96-0.71,1.5-0.41c0.53,0.3,0.71,0.99,0.41,1.52C681.54,516.21,678.32,516.87,674.72,516.87z"/>
	</g>
	<g>
		<path class="st11" d="M531.58,346.58c-0.54,0-1.09-0.04-1.63-0.12c-8.41-1.29-13.5-12.14-11.57-24.71
			c0.89-5.84,3.21-11.12,6.51-14.89c3.52-4.01,7.75-5.87,11.93-5.23c8.41,1.29,13.5,12.14,11.57,24.71
			C546.58,338.09,539.39,346.58,531.58,346.58z M535.22,305.4c-2.51,0-5.1,1.4-7.4,4.02c-2.82,3.22-4.8,7.8-5.59,12.91
			c-1.54,10.06,2.26,19.34,8.31,20.27c6.04,0.93,12.45-6.79,13.99-16.85c1.54-10.06-2.26-19.34-8.31-20.27
			C535.89,305.43,535.55,305.4,535.22,305.4z"/>
	</g>
	<g>
		<path class="st11" d="M559.32,346.63c-0.27,0-0.53-0.02-0.8-0.06c-5.51-0.84-8.5-10.18-6.8-21.25c1.7-11.07,7.35-19.1,12.85-18.24
			c2.84,0.43,5.07,3.03,6.29,7.32c1.11,3.89,1.29,8.84,0.51,13.93C569.75,338.87,564.56,346.63,559.32,346.63z M563.75,309.97
			c-3.25,0-7.66,6.25-9.12,15.8c-1.52,9.92,1.07,17.39,4.34,17.89c3.29,0.48,7.97-5.85,9.49-15.77c0.72-4.68,0.56-9.18-0.43-12.68
			c-0.87-3.06-2.29-4.96-3.9-5.21C564,309.98,563.87,309.97,563.75,309.97z"/>
	</g>
	<g>
		<path class="st11" d="M522.37,313.44c-0.18,0-0.36-0.02-0.54-0.08l-65.35-18.67c-1.04-0.3-1.63-1.38-1.34-2.41
			c0.29-1.04,1.37-1.63,2.41-1.34l65.35,18.67c1.04,0.3,1.63,1.38,1.34,2.41C523.99,312.88,523.21,313.44,522.37,313.44z"/>
	</g>
	<path class="st1" d="M569.04,272.82c-101.13,59.57-106.69,19.56-106.69,19.56l6-56.9l60.01,3.33L569.04,272.82z"/>
	<path class="st2" d="M470.18,305.6c2.35,10.07-0.86,19.43-7.18,20.9c-6.32,1.48-13.34-5.49-15.7-15.56
		c-2.35-10.07,0.86-19.43,7.18-20.91C460.8,288.56,467.82,295.53,470.18,305.6z"/>
	<path class="st7" d="M463.25,318.83c0,2.2-1.78,3.98-3.98,3.98c-2.2,0-3.98-1.78-3.98-3.98c0-2.2,1.78-3.98,3.98-3.98
		C461.47,314.84,463.25,316.63,463.25,318.83z"/>
	<path class="st9" d="M1243.43,744.39H231.8c-5.12,0-9.27-4.15-9.27-9.27c0-5.12,4.15-9.27,9.27-9.27h1011.63
		c5.12,0,9.27,4.15,9.27,9.27C1252.7,740.24,1248.55,744.39,1243.43,744.39z"/>
	<path class="st12" d="M471.59,724.07c0,0-38.14,0.48-38.62,3.86c-0.48,3.38,1.45,4.83,14.96,7.24
		c13.52,2.41,165.58,3.38,167.03,2.41c1.45-0.96,45.86-11.59,45.86-11.59l-106.68-1.93H471.59z"/>
	<path class="st2" d="M492.36,698.68c0,0,27.34-12,35.34-6.67c8,5.34,31.12,29.79,31.12,29.79L492.36,698.68z"/>
	<path class="st9" d="M557.31,723.98c-0.52,0.65-1.29,0.92-1.73,0.6l-56.25-41.88c-3.03-2.26-4.47-5.71-3.01-7.53
		c1.46-1.82,5.14-1.17,8.01,1.29l53.2,45.7C557.93,722.51,557.83,723.33,557.31,723.98z"/>
	<path class="st2" d="M409.67,693.57c0,0,45.34,18,50.68,18c5.33,0,35.12-20,45.12-17.34c10,2.67,58.9,27.34,57.57,29.34
		c-1.33,2-15.34,6.67-56.68,5.34c-41.34-1.33-108.69-7.34-108.69-7.34L409.67,693.57z"/>
	<path class="st13" d="M977.08,726.62H792.27c-2.74,0-4.97-2.24-4.97-4.97v-29.16c0-2.73,2.24-4.97,4.97-4.97h184.81
		c6.86,0,12.48,5.62,12.48,12.48v14.15C989.56,721.01,983.94,726.62,977.08,726.62z"/>
	<path class="st14" d="M962.79,694.14H787.32c-1.23,2.04-1.95,4.42-1.95,6.96v11.95c0,2.54,0.72,4.92,1.95,6.96h175.47
		c6.23,0,11.33-5.1,11.33-11.33v-3.21C974.12,699.23,969.02,694.14,962.79,694.14z"/>
	<path class="st15" d="M970.89,687.52H830.35c-1.85,0-3.36-1.51-3.36-3.36v-16.94c0-1.85,1.51-3.36,3.36-3.36h140.54
		c4.63,0,8.42,3.79,8.42,8.42v6.81C979.31,683.73,975.52,687.52,970.89,687.52z"/>
	<path class="st14" d="M959.16,667.87H827.02c-0.93,1.23-1.47,2.67-1.47,4.21v7.23c0,1.54,0.54,2.98,1.47,4.21h132.14
		c4.69,0,8.53-3.08,8.53-6.85v-1.94C967.68,670.95,963.85,667.87,959.16,667.87z"/>
	<g>
		<path class="st16" d="M994.93,185.58H845.04c-4.78,0-7.27-3.91-5.53-8.69l22.66-62.27c1.74-4.78,7.07-8.69,11.85-8.69h149.89
			c4.78,0,7.27,3.91,5.53,8.69l-22.67,62.27C1005.04,181.67,999.71,185.58,994.93,185.58z"/>
		<path class="st11" d="M989.85,179.06H854.87c-4.14,0-6.29-3.39-4.79-7.53l18.77-51.57c1.51-4.14,6.12-7.53,10.26-7.53h134.98
			c4.14,0,6.29,3.39,4.79,7.53l-18.77,51.57C998.61,175.67,993.99,179.06,989.85,179.06z"/>
		<path class="st16" d="M904.53,181.96c-12.43,32.83-31.57,42.96-31.57,42.96s13.61-18.83,11.64-28
			c-1.97-9.17-9.26-13.04-9.26-13.04L904.53,181.96z"/>
		<path class="st16" d="M1000.69,130.79h-87.01c-1.43,0-2.17-1.17-1.65-2.59l0.04-0.12c0.52-1.43,2.11-2.59,3.54-2.59h87.01
			c1.43,0,2.17,1.17,1.65,2.59l-0.04,0.12C1003.71,129.62,1002.12,130.79,1000.69,130.79z"/>
		<path class="st16" d="M996.65,141.89h-87.01c-1.43,0-2.17-1.17-1.65-2.59l0.04-0.12c0.52-1.43,2.11-2.59,3.54-2.59h87.01
			c1.43,0,2.17,1.17,1.65,2.59l-0.04,0.12C999.67,140.72,998.08,141.89,996.65,141.89z"/>
		<path class="st16" d="M992.08,154.44h-87.01c-1.43,0-2.17-1.17-1.65-2.59l0.04-0.12c0.52-1.43,2.11-2.59,3.54-2.59h87.01
			c1.43,0,2.17,1.17,1.65,2.59l-0.04,0.12C995.1,153.28,993.51,154.44,992.08,154.44z"/>
		<path class="st16" d="M900.11,139.72c-3.44,9.46-12.5,17.14-20.24,17.14c-7.73,0-11.21-7.67-7.76-17.14
			c3.45-9.46,12.51-17.14,20.24-17.14C900.08,122.58,903.56,130.25,900.11,139.72z"/>
	</g>
	<g>
		<path class="st16" d="M909.74,347.53h-7.43c-1.57,0-2.38-1.27-1.81-2.84l2.23-6.12c0.57-1.57,2.3-2.84,3.87-2.84h7.43
			c1.57,0,2.38,1.27,1.81,2.84l-2.23,6.12C913.04,346.26,911.3,347.53,909.74,347.53z"/>
		<path class="st16" d="M933.57,347.53h-7.43c-1.57,0-2.38-1.27-1.81-2.84l2.23-6.12c0.57-1.57,2.31-2.84,3.87-2.84h7.43
			c1.57,0,2.38,1.27,1.81,2.84l-2.23,6.12C936.87,346.26,935.14,347.53,933.57,347.53z"/>
		<path class="st16" d="M957.4,347.53h-7.43c-1.57,0-2.38-1.27-1.81-2.84l2.23-6.12c0.57-1.57,2.3-2.84,3.87-2.84h7.43
			c1.57,0,2.38,1.27,1.81,2.84l-2.23,6.12C960.71,346.26,958.97,347.53,957.4,347.53z"/>
	</g>
	<g>
		<path class="st16" d="M815.29,300.47H665.41c-4.78,0-7.27-3.91-5.53-8.69l22.67-62.27c1.74-4.78,7.07-8.69,11.85-8.69h149.89
			c4.78,0,7.27,3.91,5.53,8.69l-22.67,62.27C825.41,296.56,820.07,300.47,815.29,300.47z"/>
		<path class="st11" d="M810.21,293.95H675.23c-4.14,0-6.29-3.39-4.79-7.53l18.77-51.57c1.51-4.14,6.13-7.53,10.27-7.53h134.98
			c4.14,0,6.29,3.39,4.79,7.53l-18.77,51.57C818.97,290.57,814.35,293.95,810.21,293.95z"/>
		<path class="st16" d="M673,296.85c-11.46,32.83,0.29,42.96,0.29,42.96s0.09-18.83,8.74-28c8.65-9.17,18.74-13.03,18.74-13.03
			L673,296.85z"/>
		<path class="st16" d="M773.58,250.02h-73.42c-1.31,0-2-1.08-1.52-2.39l0.19-0.53c0.48-1.31,1.95-2.39,3.26-2.39h73.42
			c1.31,0,2,1.08,1.52,2.39l-0.19,0.53C776.36,248.95,774.89,250.02,773.58,250.02z"/>
		<path class="st16" d="M769.54,261.13h-73.42c-1.31,0-2-1.08-1.52-2.39l0.19-0.53c0.48-1.31,1.95-2.39,3.26-2.39h73.42
			c1.31,0,2,1.08,1.52,2.39l-0.19,0.53C772.32,260.05,770.85,261.13,769.54,261.13z"/>
		<path class="st16" d="M764.97,273.68h-73.42c-1.31,0-2-1.08-1.52-2.39l0.19-0.53c0.48-1.31,1.95-2.39,3.26-2.39h73.42
			c1.31,0,2,1.08,1.52,2.39l-0.19,0.53C767.75,272.6,766.28,273.68,764.97,273.68z"/>
		<path class="st16" d="M951.83,370.95H807.16c-2.59,0-3.94-1.08-3-2.39l0.38-0.53c0.94-1.32,3.83-2.39,6.42-2.39h144.67
			c2.59,0,3.94,1.07,2.99,2.39l-0.38,0.53C957.31,369.87,954.42,370.95,951.83,370.95z"/>
		<path class="st16" d="M943.87,389.29H799.2c-2.59,0-3.94-1.08-2.99-2.39l0.38-0.53c0.94-1.31,3.83-2.39,6.42-2.39h144.67
			c2.59,0,3.94,1.08,2.99,2.39l-0.38,0.53C949.35,388.22,946.46,389.29,943.87,389.29z"/>
		<path class="st16" d="M799.09,278.02h-10.62c-4.78,0-7.27-3.91-5.53-8.69l7.91-21.72c1.74-4.78,7.07-8.69,11.85-8.69h10.62
			c4.78,0,7.27,3.91,5.53,8.69l-7.91,21.72C809.2,274.11,803.87,278.02,799.09,278.02z"/>
	</g>
	<g>
		<path class="st17" d="M1169.58,697.84c19.28-105.79,15.06-143.63-36.58-229.97c-51.64-86.35-56.57-247.04-76.03-199.91
			c-19.46,47.13-16.85,165.48,44.16,222.92c61.01,57.43,69.22,83.15,72.84,106.53c3.62,23.38-8.71,95.23-8.71,95.23L1169.58,697.84z
			"/>
		<path class="st18" d="M1179.24,629.66c0.03-0.41,0.06-0.81,0.09-1.21c-1.13-8.68-7.26-53.32-15.74-70.93
			c-9.41-19.55-50.69-53.58-62.27-96.31c-11.59-42.72-29.95-75.83-42-102.82c-15.91-35.63-7.21-83,5.94-98.39
			c-0.32-0.21-0.64-0.35-0.96-0.44l-4.37,2.64c-0.95,1.37-1.94,3.27-2.96,5.75c-19.46,47.13-16.85,165.48,44.16,222.92
			c61.01,57.43,69.22,83.15,72.84,106.53c0.98,6.31,0.79,16.14,0,27.14L1179.24,629.66z"/>
		<path class="st17" d="M1143.23,679.17c14.34-124.32,9.56-167.35-18.17-266.81c-27.73-99.45,153.01-326.09,147.27-286.89
			c-5.74,39.21-24.86,136.75-74.59,197.95c-49.73,61.2-53.55,110.93-43.99,163.53c9.56,52.6-1.91,175-1.91,175l-5.74,22
			L1143.23,679.17z"/>
		<g>
			<path class="st18" d="M1149.83,627.51c-0.02,0-0.03,0-0.05,0c-0.66-0.03-1.18-0.58-1.15-1.25c0.01-0.38,1.44-38.71,0.72-70.17
				c-0.72-31.49-9.25-85.44-14.44-103.97c-4.73-16.88-10.67-73.47,18.18-131.92c14.37-29.11,25.84-47.52,41.72-72.99
				c15.69-25.18,35.22-56.51,66.2-111.71c0.32-0.58,1.05-0.78,1.63-0.46c0.58,0.32,0.78,1.05,0.46,1.63
				c-31.01,55.25-50.55,86.61-66.26,111.81c-15.84,25.42-27.28,43.78-41.6,72.78c-28.52,57.77-22.68,113.58-18.02,130.21
				c5.22,18.65,13.81,72.91,14.53,104.57c0.72,31.53-0.71,69.93-0.72,70.31C1151.01,627.01,1150.47,627.51,1149.83,627.51z"/>
		</g>
		<path class="st17" d="M1148.01,723.84c8.61-83.2,10.05-42.17-25.7-155.21c-40.91-129.38,105.07-244.24,128.98-197.38
			c23.91,46.86,51.64,194.13,41.12,189.35c-10.52-4.78-80.33-141.53-82.24-135.79c-1.91,5.74-94.67,53.55-90.85,102.32
			c3.83,48.77,39.21,126.23,39.21,126.23l-0.96,71.44L1148.01,723.84z"/>
		<g>
			<path class="st18" d="M1157.57,723.82c-0.04,0-0.08,0-0.12-0.01l-9.56-0.96c-0.32-0.03-0.61-0.19-0.81-0.44
				c-0.2-0.25-0.3-0.56-0.26-0.88c1-9.61,1.91-17.71,2.65-24.21c4.01-35.32,4.01-35.32-6.96-65.58
				c-4.95-13.67-11.74-32.4-21.34-62.76c-7.18-22.7-9.03-46.23-5.51-69.93c3.1-20.89,10.28-41.49,21.32-61.23
				c18.93-33.84,48.73-62.9,75.91-74.04c18.89-7.74,33.28-5.22,39.47,6.92c10.15,19.89,22.28,60.62,32.46,108.94
				c5.87,27.89,14.5,76.46,9.6,81.59c-0.67,0.7-1.6,0.87-2.5,0.46c-5.74-2.61-24.74-36.14-50.96-83.22
				c-13.14-23.61-26.71-47.96-30.37-52.17c-1.48,1.64-5.2,4.21-12.92,9.44c-25.98,17.62-80.05,54.3-77.15,91.29
				c3.76,48,38.75,125.05,39.1,125.83c0.07,0.16,0.11,0.34,0.11,0.51l-0.96,69.27c0,0.34-0.15,0.66-0.4,0.88
				C1158.15,723.71,1157.87,723.82,1157.57,723.82z M1149.33,720.59l7.06,0.71l0.93-67.69c-2.21-4.88-35.51-79.33-39.2-126.39
				c-3.01-38.38,51.84-75.59,78.19-93.46c6.26-4.25,12.18-8.26,12.72-9.37c0.17-0.53,0.64-0.91,1.2-0.96
				c2.32-0.22,6.9,7.33,32.81,53.87c18.59,33.39,44.01,79.03,49.73,82.14c0.44-0.72,1.74-4.64-0.79-24.83
				c-1.83-14.6-5.18-33.81-9.45-54.09c-10.15-48.3-22.23-88.95-32.33-108.73c-5.56-10.89-18.83-13-36.42-5.79
				c-47.67,19.54-120.7,106.22-90.34,202.26c9.58,30.31,16.36,49.01,21.31,62.66c11.15,30.79,11.15,30.79,7.09,66.67
				C1151.11,704.15,1150.27,711.54,1149.33,720.59z"/>
		</g>
		<path class="st15" d="M1178.07,727.28h-43.4c-2.98,0-5.65-1.7-5.93-3.81l-14.58-109.62c-0.67-5.06,2.67-9.32,7.45-9.32h69.52
			c4.78,0,8.12,4.26,7.45,9.32L1184,723.48C1183.72,725.59,1181.05,727.28,1178.07,727.28z"/>
		<path class="st19" d="M1172.92,723.5h-6.21c-3.04,0-5.48-1.76-5.43-3.95l2.2-94.69c0.11-4.71,3.97-8.67,8.58-8.67h9.43
			c4.61,0,7.96,3.96,7.46,8.67l-10.07,94.69C1178.63,721.74,1175.96,723.5,1172.92,723.5z"/>
		<g>
			<path class="st18" d="M1126.66,570.08l0.77-1.34c-2.81-10.15-5.16-20.26-6.66-29.7C1122.32,556.9,1126.66,570.08,1126.66,570.08z
				"/>
			<path class="st18" d="M1126.66,489.94c-2.82,7.05-4.54,14.4-5.48,21.65c12.81-42.05,84.14-80.02,88.78-86.42l0.82-1.61
				C1183.99,416.08,1141.14,453.74,1126.66,489.94z"/>
		</g>
		<g>
			<path class="st18" d="M1292.48,558c-0.54,0-1.03-0.37-1.17-0.91l-12.96-52.73c-10.12-41.32-22.72-92.75-36.86-115.64
				c-2.33-3.77-12.51-8.88-26.94-7.86c-19.49,1.38-57.07,14.85-89.7,89.53c-0.27,0.61-0.97,0.88-1.58,0.62
				c-0.61-0.27-0.88-0.97-0.62-1.58c33.14-75.84,71.69-89.55,91.73-90.97c15.58-1.1,26.43,4.59,29.15,8.99
				c14.34,23.21,26.46,72.68,37.15,116.33l12.96,52.73c0.16,0.64-0.24,1.29-0.88,1.45C1292.67,557.99,1292.57,558,1292.48,558z"/>
		</g>
		<g>
			<path class="st18" d="M1254.47,489.21c-0.05,0-0.09,0-0.14-0.01c-0.66-0.08-1.13-0.67-1.05-1.33c0.05-0.43,4.91-43.78-6.49-89.36
				c-0.16-0.64,0.23-1.29,0.87-1.46c0.65-0.16,1.29,0.23,1.46,0.87c11.51,46.02,6.6,89.78,6.54,90.22
				C1255.58,488.76,1255.07,489.21,1254.47,489.21z"/>
		</g>
		<g>
			<path class="st18" d="M1241.07,462.42c-0.05,0-0.09,0-0.14-0.01c-0.66-0.08-1.13-0.67-1.05-1.33c0.05-0.4,4.65-40.08,1.44-72.88
				c-0.06-0.66,0.42-1.25,1.08-1.31c0.65-0.07,1.25,0.42,1.31,1.08c3.23,33.06-1.4,72.99-1.45,73.39
				C1242.19,461.97,1241.67,462.42,1241.07,462.42z"/>
		</g>
		<g>
			<path class="st18" d="M1195.45,249.53c-0.45,0-0.88-0.25-1.08-0.68c-0.29-0.6-0.04-1.31,0.56-1.6
				c0.34-0.16,34.65-16.94,54.5-53.79c0.31-0.58,1.04-0.8,1.62-0.49c0.58,0.31,0.8,1.04,0.49,1.62
				c-20.23,37.56-55.22,54.65-55.57,54.82C1195.8,249.5,1195.62,249.53,1195.45,249.53z"/>
		</g>
		<g>
			<path class="st18" d="M1170.11,292.98c-0.56,0-1.06-0.39-1.17-0.96c-0.13-0.65,0.28-1.28,0.93-1.42
				c0.28-0.06,28.38-6.08,61.76-33.07c0.52-0.42,1.27-0.34,1.69,0.18c0.42,0.52,0.34,1.27-0.18,1.69
				c-33.87,27.38-62.5,33.49-62.79,33.55C1170.27,292.97,1170.19,292.98,1170.11,292.98z"/>
		</g>
		<g>
			<path class="st18" d="M1149.16,335c-0.49,0-0.79-0.02-0.87-0.02c-0.66-0.05-1.16-0.62-1.11-1.29c0.05-0.66,0.63-1.16,1.29-1.11
				c0.19,0.01,19.56,1.07,50.6-22.21c0.53-0.4,1.28-0.29,1.68,0.24c0.4,0.53,0.29,1.28-0.24,1.68
				C1172.01,333.67,1153.36,335,1149.16,335z"/>
		</g>
	</g>
</g>
</svg>
